<svg width="125" height="16" viewBox="0 0 125 16" fill="none" xmlns="http://www.w3.org/2000/svg">
<path d="M1.92163 11.495C6.46432 15.5331 14.8801 14.0803 20.5925 14.0803C22.4643 14.0803 24.8715 14.5181 26.6246 13.7292C28.407 12.9271 30.4865 13.1977 32.3854 12.628C33.6918 12.2361 34.599 11.9655 35.944 11.7503C37.0727 11.5697 37.8891 10.6332 39.1037 10.6332C39.9373 10.6332 40.642 9.66479 41.5453 9.48413C42.8303 9.22711 43.6013 8.49206 44.7847 8.11166C45.8025 7.7845 47.5909 6.77502 48.2317 5.74974C48.6597 5.06483 49.665 5.08773 49.9551 4.2496C50.1224 3.76627 50.5306 2.09579 50.003 1.74405C48.4463 0.706205 43.5667 0.633571 42.4868 2.30262C41.8116 3.34621 40.5133 3.93273 40.0612 5.23906C39.5392 6.7471 38.0344 7.93714 37.843 9.46817C37.6791 10.7798 37.5155 12.982 38.5292 13.793C39.1613 14.2987 40.2357 14.0408 40.9867 14.0803C41.7425 14.1201 42.3815 14.6548 43.2847 14.6548C47.6855 14.6548 52.0629 14.6798 56.4341 14.3676C58.3352 14.2318 60.2103 13.4358 62.0832 12.9951C63.0173 12.7753 63.9573 12.8027 64.8918 12.5802C65.8535 12.3512 67.4059 12.0571 68.2749 11.6226C69.2313 11.1444 70.2192 11.1669 71.1473 10.7608C72.2132 10.2945 73.3218 9.71904 74.4506 9.46817C76.4038 9.03409 78.3311 7.63139 80.0518 6.67536C80.6774 6.3278 80.9136 4.21157 80.9136 3.45166C80.9136 1.46054 77.5652 2.33181 76.5251 3.00481C74.7884 4.12862 74.3023 10.2135 75.807 11.7184C77.1299 13.0413 80.5175 13.0408 82.2221 13.4419C84.3558 13.944 87.0376 13.5058 89.2277 13.5058C91.8129 13.5058 94.3981 13.5058 96.9833 13.5058C98.7069 13.5058 100.326 13.4345 102.026 13.2345C104.007 13.0013 106.3 13.3192 108.202 12.8036C111.979 11.7792 115.816 11.1114 119.644 10.3459C121.158 10.043 122.396 9.48413 124 9.48413" stroke="#9F87E5" stroke-width="2" stroke-linecap="round"/>
</svg>
